<svg width="9" height="15" viewBox="0 0 9 15" fill="none" xmlns="http://www.w3.org/2000/svg">
<path d="M3.4 7.42225L8.6 12.3813C8.84445 12.6144 8.96667 12.9111 8.96667 13.2714C8.96667 13.6317 8.84445 13.9284 8.6 14.1615C8.35556 14.3946 8.04445 14.5112 7.66667 14.5112C7.28889 14.5112 6.97778 14.3946 6.73334 14.1615L0.600004 8.31234C0.466671 8.18518 0.372226 8.04743 0.316671 7.89908C0.261115 7.75073 0.233337 7.59179 0.233337 7.42225C0.233337 7.2527 0.261115 7.09376 0.316671 6.94541C0.372226 6.79706 0.466671 6.65931 0.600004 6.53216L6.73334 0.682991C6.97778 0.449872 7.28889 0.333313 7.66667 0.333313C8.04445 0.333313 8.35556 0.449872 8.6 0.682991C8.84445 0.91611 8.96667 1.21281 8.96667 1.57308C8.96667 1.93336 8.84445 2.23005 8.6 2.46317L3.4 7.42225Z" fill="#343434"/>
</svg>
