<!DOCTYPE svg PUBLIC "-//W3C//DTD SVG 1.1//EN" "http://www.w3.org/Graphics/SVG/1.1/DTD/svg11.dtd">
<!-- Uploaded to: SVG Repo, www.svgrepo.com, Transformed by: SVG Repo Mixer Tools -->
<svg fill="#000000" height="64px" width="64px" version="1.1" id="Capa_1" xmlns="http://www.w3.org/2000/svg" xmlns:xlink="http://www.w3.org/1999/xlink" viewBox="-28.91 -28.91 250.52 250.52" xml:space="preserve" stroke="#000000" stroke-width="9.63505">
<g id="SVGRepo_bgCarrier" stroke-width="0"/>
<g id="SVGRepo_tracerCarrier" stroke-linecap="round" stroke-linejoin="round" stroke="#CCCCCC" stroke-width="1.1562059999999998"/>
<g id="SVGRepo_iconCarrier"> <g> <g id="Double_Chevron_Left"> <path d="M29.641,96.345l74.54-75.61c4.704-4.74,4.704-12.439,0-17.179c-4.704-4.74-12.319-4.74-17.011,0l-82.997,84.2 c-4.511,4.559-4.535,12.608,0,17.191l83.009,84.2c4.692,4.74,12.319,4.74,17.011,0c4.704-4.74,4.704-12.439,0-17.179 L29.641,96.345z"/> <path d="M113.853,96.345l74.54-75.61c4.704-4.74,4.704-12.439,0-17.179c-4.704-4.74-12.319-4.74-17.011,0l-82.997,84.2 c-4.511,4.559-4.535,12.608,0,17.191l82.997,84.2c4.704,4.74,12.319,4.74,17.011,0c4.704-4.74,4.704-12.439,0-17.179 L113.853,96.345z"/> </g> <g> </g> <g> </g> <g> </g> <g> </g> <g> </g> <g> </g> </g> </g>
</svg>